<svg xmlns="http://www.w3.org/2000/svg" width="256" height="256" viewBox="0 0 100 100"><path fill="#6813fe" d="M34.36 92.60L34.36 92.60Q33.52 92 32.98 90.98Q32.44 89.96 32.32 89L32.32 89Q32.92 87.32 33.52 85.40Q34.12 83.48 34.90 80.54Q35.68 77.60 36.52 73.16L36.52 73.16L45.04 28.76Q47.08 18.44 53.38 12.92Q59.68 7.40 68.92 7.40L68.92 7.40Q79.12 7.40 83.56 14.54Q88.00 21.68 85.60 34.16L85.60 34.16Q82.72 48.80 72.94 56.66Q63.16 64.52 48.64 64.52L48.64 64.52L49.36 58.76Q58.48 58.76 64.84 51.98Q71.20 45.20 73.72 32.36L73.72 32.36Q75.40 23.48 73.96 18.32Q72.52 13.16 67.96 13.16L67.96 13.16Q63.88 13.16 60.58 17.84Q57.28 22.52 55.72 30.32L55.72 30.32L48.28 68.72Q47.32 74 47.02 77.60Q46.72 81.20 46.96 84.08L46.96 84.08Q43.96 85.28 40.36 87.80Q36.76 90.32 34.36 92.60ZM39.64 58.76L38.92 64.52Q29.20 64.52 23.14 60.74Q17.08 56.96 14.86 50.48Q12.64 44 14.20 35.72L14.20 35.72Q15.64 28.40 19.24 23.12Q22.84 17.84 27.82 14Q32.80 10.16 38.44 7.40L38.44 7.40Q39.40 8 40.06 9.08Q40.72 10.16 40.72 11.48L40.72 11.48Q36.16 15.80 33.28 19.46Q30.40 23.12 28.84 26.84Q27.28 30.56 26.44 35.12L26.44 35.12Q25.00 42.56 25.90 47.90Q26.80 53.24 30.22 56Q33.64 58.76 39.64 58.76L39.64 58.76Z"></path></svg>