<svg xmlns="http://www.w3.org/2000/svg" width="256" height="256" viewBox="0 0 100 100"><path d="M40.95 99.86L29.91 99.86L36.11 70.46Q25.20 69.10 19.09 62.03Q12.98 54.96 12.98 43.43L12.98 43.43Q12.98 31.40 17.72 21.32Q22.47 11.24 33.81 0.64L33.81 0.64L40.95 7.27Q31.83 16.02 27.92 24.36Q24.02 32.70 24.02 42.31L24.02 42.31Q24.02 59.49 38.16 61.35L38.16 61.35L46.40 22.22Q48.95 10.56 54.37 5.35Q59.80 0.14 68.60 0.14L68.60 0.14Q77.47 0.14 82.25 6.00Q87.02 11.86 87.02 23.15L87.02 23.15Q87.02 36.61 82.12 47.33Q77.22 58.06 68.23 64.01Q59.24 69.97 47.02 70.77L47.02 70.77L40.95 99.86ZM57.32 23.52L49.19 61.35Q57.13 60.54 63.15 55.80Q69.16 51.05 72.51 42.40Q75.86 33.75 75.86 23.27L75.86 23.27Q75.86 9.38 67.98 9.38L67.98 9.38Q63.52 9.38 61.13 12.85Q58.74 16.33 57.32 23.52L57.32 23.52Z" fill="#2878ff"></path></svg>