<svg xmlns="http://www.w3.org/2000/svg" width="256" height="256" viewBox="0 0 100 100"><path d="M45.22 99.90L32.87 99.90L36.12 84.96Q21.64 84.03 13.78 76.13Q5.91 68.23 5.91 54.35L5.91 54.35Q5.91 41.60 11.15 32.30Q16.40 23.01 26.72 17.76Q37.05 12.51 51.66 12.05L51.66 12.05L54.05 0.10L66.47 0.10L64.01 12.05Q78.29 12.85 86.19 20.71Q94.09 28.58 94.09 42.00L94.09 42.00Q94.09 54.48 88.42 64.31Q82.74 74.14 72.45 79.35Q62.15 84.56 48.47 84.96L48.47 84.96L45.22 99.90ZM61.69 22.54L50.66 74.67Q65.41 73.81 73.54 65.34Q81.68 56.87 81.68 42.66L81.68 42.66Q81.68 33.50 76.56 28.22Q71.45 22.94 61.69 22.54L61.69 22.54ZM38.18 74.67L49.34 22.54Q34.59 22.67 26.46 31.01Q18.32 39.34 18.32 53.69L18.32 53.69Q18.32 63.45 23.50 68.89Q28.68 74.34 38.18 74.67L38.18 74.67Z" fill="#2878ff"></path></svg>