<svg xmlns="http://www.w3.org/2000/svg" width="256" height="256" viewBox="0 0 100 100"><path d="M54.71 99.53L43.88 99.53L43.88 70.36Q27.82 69.50 19.55 60.61Q11.27 51.72 11.27 35.11L11.27 35.11Q11.27 16.78 24.13 1.09L24.13 1.09L32.68 7.00Q27.21 14.19 24.78 21.05Q22.35 27.91 22.35 35.48L22.35 35.48Q22.35 59.17 43.88 61.32L43.88 61.32L43.88 23.79Q43.88 12.59 49.11 6.53Q54.34 0.47 63.81 0.47L63.81 0.47Q75.19 0.47 81.96 9.52Q88.73 18.56 88.73 33.88L88.73 33.88Q88.73 44.77 84.55 52.77Q80.36 60.77 72.67 65.29Q64.98 69.81 54.71 70.36L54.71 70.36L54.71 99.53ZM77.53 34.00L77.53 34.00Q77.53 22.68 73.84 16.16Q70.15 9.64 63.94 9.64L63.94 9.64Q59.57 9.64 57.14 13.15Q54.71 16.65 54.71 23.67L54.71 23.67L54.71 61.32Q65.47 60.34 71.50 53.20Q77.53 46.06 77.53 34.00Z" fill="#2878ff"></path></svg>