<svg xmlns="http://www.w3.org/2000/svg" width="256" height="256" viewBox="0 0 100 100"><path d="M31.61 100.06L31.61 100.06Q30.62 99.35 29.99 98.15Q29.35 96.95 29.21 95.83L29.21 95.83Q29.92 93.85 30.62 91.59Q31.33 89.34 32.24 85.88Q33.16 82.43 34.15 77.21L34.15 77.21L44.16 25.04Q46.55 12.92 53.96 6.43Q61.36-0.06 72.22-0.06L72.22-0.06Q84.20-0.06 89.42 8.33Q94.63 16.72 91.81 31.39L91.81 31.39Q88.43 48.59 76.94 57.83Q65.45 67.06 48.39 67.06L48.39 67.06L49.23 60.29Q59.95 60.29 67.42 52.33Q74.89 44.36 77.86 29.27L77.86 29.27Q79.83 18.84 78.14 12.78Q76.45 6.71 71.09 6.71L71.09 6.71Q66.29 6.71 62.42 12.21Q58.54 17.71 56.71 26.88L56.71 26.88L47.96 72.00Q46.84 78.20 46.48 82.43Q46.13 86.66 46.41 90.04L46.41 90.04Q42.89 91.45 38.66 94.42Q34.43 97.38 31.61 100.06ZM37.81 60.29L36.97 67.06Q25.54 67.06 18.42 62.62Q11.30 58.18 8.69 50.56Q6.09 42.95 7.92 33.22L7.92 33.22Q9.61 24.62 13.84 18.42Q18.07 12.21 23.92 7.70Q29.77 3.19 36.40-0.06L36.40-0.06Q37.53 0.65 38.30 1.92Q39.08 3.19 39.08 4.74L39.08 4.74Q33.72 9.81 30.34 14.12Q26.95 18.42 25.12 22.79Q23.29 27.16 22.30 32.52L22.30 32.52Q20.61 41.26 21.67 47.53Q22.72 53.81 26.74 57.05Q30.76 60.29 37.81 60.29L37.81 60.29Z" fill="#2878ff"></path></svg>