<svg xmlns="http://www.w3.org/2000/svg" width="256" height="256" viewBox="0 0 100 100"><path d="M49.49 85.62L49.49 85.62Q35.33 85.62 24.30 81.46Q13.28 77.30 7.08 69.27Q0.87 61.24 0.87 50L0.87 50Q0.87 38.32 7.37 30.51Q13.87 22.70 25.11 18.68Q36.35 14.67 50.37 14.67L50.37 14.67Q64.38 14.67 75.40 18.61Q86.43 22.55 92.78 30.22Q99.13 37.88 99.13 49.27L99.13 49.27Q99.13 60.51 92.78 68.69Q86.43 76.86 75.26 81.24Q64.09 85.62 49.49 85.62ZM51.24 78.03L51.24 78.03Q67.01 78.03 75.70 70.88Q84.38 63.72 84.38 50.88L84.38 50.88Q84.38 41.24 79.71 34.89Q75.04 28.54 66.86 25.33Q58.69 22.11 48.17 22.11L48.17 22.11Q38.83 22.11 31.46 24.81Q24.09 27.52 19.85 33.28Q15.62 39.05 15.62 48.54L15.62 48.54Q15.62 62.12 24.96 70.08Q34.30 78.03 51.24 78.03ZM32.70 99.79L32.70 99.79Q32.70 97.74 32.84 96.21Q32.99 94.68 33.43 93.51L33.43 93.51Q37.37 93.22 39.56 92.12Q41.75 91.03 42.63 88.33Q43.50 85.62 43.50 80.81L43.50 80.81L43.50 19.19Q43.50 14.23 42.63 11.60Q41.75 8.97 39.56 7.81Q37.37 6.64 33.43 6.49L33.43 6.49Q32.99 5.32 32.84 3.72Q32.70 2.11 32.70 0.21L32.70 0.21Q35.47 0.36 38.32 0.43Q41.17 0.51 44.16 0.58Q47.15 0.65 50.07 0.65L50.07 0.65Q53.14 0.65 55.99 0.58Q58.83 0.51 61.68 0.43Q64.53 0.36 67.45 0.21L67.45 0.21Q67.45 2.11 67.30 3.72Q67.16 5.32 66.72 6.49L66.72 6.49Q62.92 6.64 60.66 7.81Q58.39 8.97 57.52 11.60Q56.64 14.23 56.64 19.19L56.64 19.19L56.64 80.81Q56.64 85.62 57.52 88.33Q58.39 91.03 60.66 92.12Q62.92 93.22 66.72 93.51L66.72 93.51Q67.16 94.68 67.30 96.21Q67.45 97.74 67.45 99.79L67.45 99.79Q63.07 99.49 58.61 99.42Q54.16 99.35 50.07 99.35L50.07 99.35Q45.98 99.35 41.24 99.42Q36.49 99.49 32.70 99.79Z" fill="#2878ff"></path></svg>