<svg xmlns="http://www.w3.org/2000/svg" width="256" height="256" viewBox="0 0 100 100"><path fill="#3613fe" d="M32.13 98.64L32.13 98.64Q31.17 97.95 30.55 96.79Q29.94 95.62 29.80 94.53L29.80 94.53Q30.49 92.61 31.17 90.42Q31.86 88.22 32.75 84.87Q33.64 81.51 34.60 76.44L34.60 76.44L44.32 25.75Q46.65 13.97 53.84 7.67Q61.04 1.37 71.59 1.37L71.59 1.37Q83.23 1.37 88.30 9.52Q93.37 17.67 90.63 31.92L90.63 31.92Q87.34 48.63 76.17 57.60Q65.01 66.58 48.43 66.58L48.43 66.58L49.25 60.00Q59.67 60.00 66.93 52.26Q74.19 44.52 77.07 29.86L77.07 29.86Q78.98 19.72 77.34 13.83Q75.70 7.94 70.49 7.94L70.49 7.94Q65.83 7.94 62.06 13.28Q58.30 18.63 56.52 27.53L56.52 27.53L48.02 71.37Q46.93 77.40 46.58 81.51Q46.24 85.62 46.51 88.91L46.51 88.91Q43.09 90.28 38.98 93.16Q34.87 96.03 32.13 98.64ZM38.16 60.00L37.34 66.58Q26.24 66.58 19.32 62.26Q12.40 57.95 9.87 50.55Q7.33 43.15 9.11 33.70L9.11 33.70Q10.76 25.34 14.87 19.31Q18.98 13.28 24.66 8.90Q30.35 4.52 36.79 1.37L36.79 1.37Q37.88 2.05 38.64 3.28Q39.39 4.52 39.39 6.02L39.39 6.02Q34.18 10.96 30.90 15.13Q27.61 19.31 25.83 23.56Q24.05 27.81 23.09 33.01L23.09 33.01Q21.44 41.51 22.47 47.60Q23.50 53.70 27.40 56.85Q31.31 60.00 38.16 60.00L38.16 60.00Z"></path></svg>