<svg xmlns="http://www.w3.org/2000/svg" width="256" height="256" viewBox="0 0 100 100"><path d="M42.89 85.62L42.89 85.62Q28.59 85.62 18.37 81.24Q8.15 76.86 3.47 68.69Q-1.20 60.51 0.99 48.98L0.99 48.98Q3.18 37.59 11.07 29.92Q18.95 22.26 30.78 18.46Q42.60 14.67 56.62 14.67L56.62 14.67Q70.63 14.67 81.00 18.76Q91.37 22.84 96.33 30.73Q101.29 38.61 98.96 50.29L98.96 50.29Q96.91 61.24 89.10 69.20Q81.29 77.16 69.39 81.39Q57.49 85.62 42.89 85.62ZM25.08 99.79L25.08 99.79Q25.08 97.89 25.37 96.28Q25.67 94.68 26.25 93.51L26.25 93.51Q30.19 93.07 32.38 91.97Q34.57 90.88 35.74 88.25Q36.91 85.62 37.78 80.81L37.78 80.81L48.44 19.19Q49.32 14.23 48.73 11.75Q48.15 9.27 45.96 8.10Q43.77 6.93 39.68 6.49L39.68 6.49Q39.54 5.03 39.46 3.50Q39.39 1.97 39.54 0.21L39.54 0.21Q43.62 0.36 48.00 0.51Q52.38 0.65 57.06 0.65L57.06 0.65Q61.73 0.65 66.11 0.51Q70.49 0.36 74.87 0.21L74.87 0.21Q74.72 1.97 74.50 3.50Q74.28 5.03 73.55 6.49L73.55 6.49Q69.90 7.08 67.71 8.24Q65.52 9.41 64.28 11.89Q63.04 14.38 62.17 19.19L62.17 19.19L51.51 80.81Q50.63 85.62 51.07 88.25Q51.51 90.88 53.70 91.90Q55.89 92.92 60.12 93.51L60.12 93.51Q60.41 94.82 60.56 96.50Q60.71 98.18 60.41 99.79L60.41 99.79Q56.03 99.49 51.51 99.42Q46.98 99.35 42.75 99.35L42.75 99.35Q38.51 99.35 33.70 99.42Q28.88 99.49 25.08 99.79ZM45.23 78.03L45.23 78.03Q61.29 78.03 71.58 70.59Q81.88 63.14 84.36 49.85L84.36 49.85Q86.26 40.36 82.83 34.23Q79.39 28.10 71.95 25.11Q64.50 22.11 54.14 22.11L54.14 22.11Q44.65 22.11 36.62 24.96Q28.59 27.81 23.11 33.87Q17.64 39.93 15.74 49.56L15.74 49.56Q13.11 62.85 20.78 70.44Q28.44 78.03 45.23 78.03Z" fill="#2878ff"></path></svg>