<svg xmlns="http://www.w3.org/2000/svg" width="256" height="256" viewBox="0 0 100 100"><path d="M44.40 99.63L44.40 99.63Q43.42 99.21 42.65 98.30Q41.88 97.39 41.60 96.55L41.60 96.55Q41.88 94.45 42.16 92.07Q42.44 89.69 42.65 86.26Q42.86 82.83 42.86 77.65L42.86 77.65L42.86 25.85Q42.86 13.81 49.44 7.09Q56.02 0.37 67.36 0.37L67.36 0.37Q79.82 0.37 86.82 8.42Q93.82 16.47 93.82 30.61L93.82 30.61Q93.82 47.97 83.25 57.49Q72.68 67.01 54.48 67.01L54.48 67.01L54.48 60.29Q66.38 60.29 72.89 52.73Q79.40 45.17 79.40 30.47L79.40 30.47Q79.40 19.83 76.04 13.46Q72.68 7.09 66.66 7.09L66.66 7.09Q61.48 7.09 58.47 12.27Q55.46 17.45 55.46 26.55L55.46 26.55L55.46 71.35Q55.46 77.51 55.95 81.71Q56.44 85.91 57.42 89.13L57.42 89.13Q54.20 90.81 50.49 93.82Q46.78 96.83 44.40 99.63ZM43.56 60.29L43.56 67.01Q31.52 67.01 23.19 62.81Q14.86 58.61 10.52 51.19Q6.18 43.77 6.18 34.39L6.18 34.39Q6.18 25.71 9.47 19.34Q12.76 12.97 18.08 8.35Q23.40 3.73 29.56 0.37L29.56 0.37Q30.68 0.93 31.59 1.91Q32.50 2.89 32.64 4.29L32.64 4.29Q28.02 9.47 25.50 13.81Q22.98 18.15 22.00 22.42Q21.02 26.69 21.02 31.73L21.02 31.73Q21.02 40.69 23.47 47.06Q25.92 53.43 30.96 56.86Q36.00 60.29 43.56 60.29L43.56 60.29Z" fill="#2878ff"></path></svg>