<svg width="100%" height="100%" id="svg" viewBox="0 0 1440 390" xmlns="http://www.w3.org/2000/svg"
            class="transition duration-300 ease-in-out delay-150">
            <defs>
                <linearGradient id="gradient" x1="0%" y1="50%" x2="100%" y2="50%">
                    <stop offset="5%" stop-color="#6366f1"></stop>
                    <stop offset="95%" stop-color="#ec4899"></stop>
                </linearGradient>
            </defs>
            <path
                d="M 0,400 C 0,400 0,133 0,133 C 62.9769230769231,131.04358974358973 125.9538461538462,129.0871794871795 203,137 C 280.0461538461538,144.9128205128205 371.1615384615384,162.6948717948718 449,167 C 526.8384615384616,171.3051282051282 591.4,162.13333333333333 676,162 C 760.6,161.86666666666667 865.2384615384615,170.77179487179487 965,171 C 1064.7615384615385,171.22820512820513 1159.646153846154,162.77948717948718 1238,155 C 1316.353846153846,147.22051282051282 1378.176923076923,140.1102564102564 1440,133 C 1440,133 1440,400 1440,400 Z"
                stroke="none" stroke-width="0" fill="url(#gradient)" fill-opacity="0.53"
                class="transition-all duration-300 ease-in-out delay-150 path-0"></path>
            <defs>
                <linearGradient id="gradient" x1="0%" y1="50%" x2="100%" y2="50%">
                    <stop offset="5%" stop-color="#6366f1"></stop>
                    <stop offset="95%" stop-color="#ec4899"></stop>
                </linearGradient>
            </defs>
            <path
                d="M 0,400 C 0,400 0,266 0,266 C 77.51538461538462,276.4589743589744 155.03076923076924,286.9179487179487 236,290 C 316.96923076923076,293.0820512820513 401.39230769230767,288.7871794871795 475,277 C 548.6076923076923,265.2128205128205 611.4,245.9333333333333 704,234 C 796.6,222.0666666666667 919.0076923076924,217.4794871794872 1000,223 C 1080.9923076923076,228.5205128205128 1120.5692307692307,244.14871794871794 1187,253 C 1253.4307692307693,261.85128205128206 1346.7153846153847,263.925641025641 1440,266 C 1440,266 1440,400 1440,400 Z"
                stroke="none" stroke-width="0" fill="url(#gradient)" fill-opacity="1"
                class="transition-all duration-300 ease-in-out delay-150 path-1"></path>
        </svg>
