<svg id="visual" viewBox="0 0 900 600" width="900" height="600" xmlns="http://www.w3.org/2000/svg" xmlns:xlink="http://www.w3.org/1999/xlink" version="1.1"><rect x="0" y="0" width="900" height="600" fill="#002233"></rect><path d="M0 20L4.8 22.7C9.7 25.3 19.3 30.7 29 31.7C38.7 32.7 48.3 29.3 58 26.2C67.7 23 77.3 20 87 20.5C96.7 21 106.3 25 116 27C125.7 29 135.3 29 145 30.3C154.7 31.7 164.3 34.3 174 32.3C183.7 30.3 193.3 23.7 203 22.5C212.7 21.3 222.3 25.7 232 25.5C241.7 25.3 251.3 20.7 261 21.2C270.7 21.7 280.3 27.3 290 27C299.7 26.7 309.3 20.3 319 18.7C328.7 17 338.3 20 348 24.3C357.7 28.7 367.3 34.3 377 35C386.7 35.7 396.3 31.3 406 31.7C415.7 32 425.3 37 435.2 35.2C445 33.3 455 24.7 464.8 23.2C474.7 21.7 484.3 27.3 494 27.2C503.7 27 513.3 21 523 18.8C532.7 16.7 542.3 18.3 552 21.3C561.7 24.3 571.3 28.7 581 30.7C590.7 32.7 600.3 32.3 610 31.3C619.7 30.3 629.3 28.7 639 25.8C648.7 23 658.3 19 668 18.7C677.7 18.3 687.3 21.7 697 23C706.7 24.3 716.3 23.7 726 23.2C735.7 22.7 745.3 22.3 755 21.5C764.7 20.7 774.3 19.3 784 19C793.7 18.7 803.3 19.3 813 21.8C822.7 24.3 832.3 28.7 842 28.3C851.7 28 861.3 23 871 23.5C880.7 24 890.3 30 895.2 33L900 36L900 0L895.2 0C890.3 0 880.7 0 871 0C861.3 0 851.7 0 842 0C832.3 0 822.7 0 813 0C803.3 0 793.7 0 784 0C774.3 0 764.7 0 755 0C745.3 0 735.7 0 726 0C716.3 0 706.7 0 697 0C687.3 0 677.7 0 668 0C658.3 0 648.7 0 639 0C629.3 0 619.7 0 610 0C600.3 0 590.7 0 581 0C571.3 0 561.7 0 552 0C542.3 0 532.7 0 523 0C513.3 0 503.7 0 494 0C484.3 0 474.7 0 464.8 0C455 0 445 0 435.2 0C425.3 0 415.7 0 406 0C396.3 0 386.7 0 377 0C367.3 0 357.7 0 348 0C338.3 0 328.7 0 319 0C309.3 0 299.7 0 290 0C280.3 0 270.7 0 261 0C251.3 0 241.7 0 232 0C222.3 0 212.7 0 203 0C193.3 0 183.7 0 174 0C164.3 0 154.7 0 145 0C135.3 0 125.7 0 116 0C106.3 0 96.7 0 87 0C77.3 0 67.7 0 58 0C48.3 0 38.7 0 29 0C19.3 0 9.7 0 4.8 0L0 0Z" fill="#0066FF" stroke-linecap="round" stroke-linejoin="miter"></path></svg>